<?xml version="1.0" standalone="no"?>
<!DOCTYPE svg PUBLIC "-//W3C//DTD SVG 20010904//EN"
 "http://www.w3.org/TR/2001/REC-SVG-20010904/DTD/svg10.dtd">
<svg version="1.0" xmlns="http://www.w3.org/2000/svg"
 width="80.000000pt" height="80.000000pt" viewBox="0 0 80.000000 80.000000"
 preserveAspectRatio="xMidYMid meet">
<metadata>
Created by potrace 1.16, written by Peter Selinger 2001-2019
</metadata>
<g transform="translate(0.000000,80.000000) scale(0.100000,-0.100000)"
fill="#000000" stroke="none">
<path d="M240 435 l0 -195 95 0 c87 0 95 -2 95 -19 0 -15 -8 -21 -32 -23 -28
-2 -34 -8 -36 -30 l-3 -28 131 0 131 0 -3 28 c-2 22 -8 28 -35 30 -25 2 -33 8
-33 23 0 17 8 19 95 19 l95 0 0 195 0 195 -250 0 -250 0 0 -195z m480 0 l0
-175 -230 0 -230 0 0 175 0 175 230 0 230 0 0 -175z"/>
<path d="M60 375 l0 -235 110 0 110 0 0 40 c0 22 -4 40 -10 40 -5 0 -10 -11
-10 -24 0 -14 -4 -28 -10 -31 -5 -3 -10 3 -10 14 0 19 -6 21 -70 21 -65 0 -70
-1 -70 -22 0 -15 -3 -19 -10 -12 -7 7 -9 85 -8 215 l3 204 68 3 c94 4 84 22
-13 22 l-80 0 0 -235z"/>
</g>
</svg>
